<?xml version="1.0" encoding="iso-8859-1"?>
<!-- Generator: Adobe Illustrator 19.0.0, SVG Export Plug-In . SVG Version: 6.00 Build 0)  -->
<svg version="1.1" id="Layer_1" xmlns="http://www.w3.org/2000/svg" xmlns:xlink="http://www.w3.org/1999/xlink" x="0px" y="0px"
	 viewBox="0 0 512.8 512.8" style="enable-background:new 0 0 512.8 512.8;" xml:space="preserve">
<path d="M268.8,47.2H15.2C6.4,47.2,0,53.6,0,62.4v174.4c0,8,6.4,15.2,15.2,15.2h36v66.4l84-66.4h134.4c8,0,15.2-6.4,15.2-15.2V62.4
	C283.2,53.6,276.8,47.2,268.8,47.2z"/>
<g>
	<circle style="fill:#FFFFFF;" cx="211.2" cy="148.8" r="21.6"/>
	<circle style="fill:#FFFFFF;" cx="141.6" cy="148.8" r="21.6"/>
	<circle style="fill:#FFFFFF;" cx="72" cy="148.8" r="21.6"/>
</g>
<path style="fill:#25B6D2;" d="M496.8,195.2H243.2c-8,0-15.2,6.4-15.2,15.2V384c0,8,6.4,15.2,15.2,15.2h134.4l84,66.4v-66.4h36
	c8,0,15.2-6.4,15.2-15.2V209.6C512,201.6,505.6,195.2,496.8,195.2z"/>
<g>
	<circle style="fill:#FFFFFF;" cx="376.8" cy="296.8" r="21.6"/>
	<circle style="fill:#FFFFFF;" cx="300.8" cy="296.8" r="21.6"/>
	<circle style="fill:#FFFFFF;" cx="440" cy="296.8" r="21.6"/>
</g>
<g>
</g>
<g>
</g>
<g>
</g>
<g>
</g>
<g>
</g>
<g>
</g>
<g>
</g>
<g>
</g>
<g>
</g>
<g>
</g>
<g>
</g>
<g>
</g>
<g>
</g>
<g>
</g>
<g>
</g>
</svg>
