<svg id="icons" enable-background="new 0 0 64 64" height="512" viewBox="0 0 64 64" width="512" xmlns="http://www.w3.org/2000/svg"><path d="m53 1v24.01h-3v2l-6-2-15 .011v-4-13.011-7.01z" fill="#e6e9ed"/><path d="m41 6c3.86 0 7 3.14 7 7 0 3.87-3.14 7-7 7s-7-3.13-7-7c0-3.86 3.14-7 7-7z"/><path d="m29 8.01v13.011h-.01l-6.99-.021-5 2v-2h-3v-12.99h14.99z" fill="#ccd1d9"/><path d="m48 13c0-3.86-3.14-7-7-7s-7 3.14-7 7c0 3.87 3.14 7 7 7s7-3.13 7-7z" fill="#ed5565"/><path d="m18 52.061v3.939l-.01.021-3.99 4.979-4-5v-3.939c1.2.599 2.57.939 4 .939s2.8-.34 4-.939z" fill="#eac6bb"/><path d="m62 61v2h-10l2-7h3c2.77 0 5 2.24 5 5z" fill="#e6e9ed"/><path d="m57 56h-3c2.769.002 4.997 2.241 4.997 5v2h3.003v-2c0-2.76-2.23-5-5-5z" fill="#ccd1d9"/><path d="m46 56 2 7h-10v-2c0-2.76 2.24-5 5-5z" fill="#e6e9ed"/><path d="m5 34c0-1.66 1.34-3 3-3v6c0 1.66-1.34 3-3 3z" fill="#e9573f"/><path d="m50 53c1.43 0 2.8-.34 4-.939v.01 3.929l-2 1-2-1-2 1-2-1v-3.93-.01c1.2.6 2.57.94 4 .94z" fill="#87bcf4"/><path d="m59 40.04v3.96c0 3.53-2.04 6.59-5 8.061-1.2.599-2.57.939-4 .939s-2.8-.34-4-.939c-2.96-1.471-5-4.53-5-8.061v-.04-3.92h.01z" fill="#eac6bb"/><path d="m55.997 40.04v3.96c0 3.53-2.04 6.59-5 8.061-.771.385-1.616.648-2.499.799.491.082.99.14 1.502.14 1.43 0 2.8-.34 4-.939 2.96-1.471 5-4.53 5-8.061v-3.96z" fill="#d3b1a9"/><path d="m26 38.51v8.511c0-2.381-1.19-4.48-3-5.74v-.01c-1.13-.79-2.51-1.25-4-1.25v-.021h-8c-1.66 0-3-1.34-3-3v-6c1.91-1.95 4.56-2.99 7.5-2.99 5.8 0 10.5 4.7 10.5 10.5z" fill="#fc6e51"/><path d="m15.5 28.01c-.529 0-1.044.045-1.551.112 5.11.708 9.048 5.082 9.048 10.388v2.759c.001.001.002.001.003.002v.01c1.81 1.26 3 3.359 3 5.74v-8.511c0-5.8-4.7-10.5-10.5-10.5z" fill="#e9573f"/><path d="m54 56-2 7h-4l-2-7 2 1 2-1 2 1z" fill="#5d9cec"/><path d="m26 63h-24v-2c0-2.76 2.23-5 5-5h3l4 5 3.99-4.979.01-.021h3c2.76 0 5 2.24 5 5z" fill="#48cfad"/><path d="m21 56h-3c2.758.002 4.997 2.241 4.997 5v2h3.003v-2c0-2.76-2.24-5-5-5z" fill="#37bc9b"/><path d="m43.01 30h14c1.101 0 2 .9 2 2v8.04h-.01-17.99v-8.04c0-1.1.9-2 2-2z" fill="#e6e9ed"/><path d="m57.01 30h-3.003c1.101 0 2 .9 2 2v8.04h2.993.01v-8.04c0-1.1-.9-2-2-2z" fill="#ccd1d9"/><path d="m23 41.28v2.72c0 3.53-2.04 6.59-5 8.061-1.2.599-2.57.939-4 .939s-2.8-.34-4-.939c-2.96-1.471-5-4.531-5-8.061v-4c1.66 0 3-1.34 3-3 0 1.66 1.34 3 3 3h8v.021c1.49 0 2.87.46 4 1.25z" fill="#eac6bb"/><path d="m19.997 40.098v3.902c0 3.53-2.04 6.59-5 8.061-.771.385-1.616.648-2.499.799.491.082.99.14 1.502.14 1.43 0 2.8-.34 4-.939 2.96-1.471 5-4.53 5-8.061v-2.72-.01c-.873-.61-1.896-1.016-3.003-1.172z" fill="#d3b1a9"/><path d="m38 62c-.553 0-1-.447-1-1 0-3.309 2.691-6 6-6 .553 0 1 .447 1 1s-.447 1-1 1c-2.206 0-4 1.794-4 4 0 .553-.447 1-1 1z"/><path d="m46 57h-3c-.553 0-1-.447-1-1s.447-1 1-1h3c.553 0 1 .447 1 1s-.447 1-1 1z"/><path d="m38 63.997c-.553 0-1-.447-1-1v-1.997c0-.553.447-1 1-1s1 .447 1 1v1.997c0 .553-.447 1-1 1z"/><path d="m62 62c-.553 0-1-.447-1-1 0-2.206-1.794-4-4-4-.553 0-1-.447-1-1s.447-1 1-1c3.309 0 6 2.691 6 6 0 .553-.447 1-1 1z"/><path d="m57 57h-3c-.553 0-1-.447-1-1s.447-1 1-1h3c.553 0 1 .447 1 1s-.447 1-1 1z"/><path d="m62 63.997c-.553 0-1-.447-1-1v-1.997c0-.553.447-1 1-1s1 .447 1 1v1.997c0 .553-.447 1-1 1z"/><path d="m46 57c-.553 0-1-.447-1-1v-3.936c0-.553.447-1 1-1s1 .447 1 1v3.936c0 .553-.447 1-1 1z"/><path d="m54 57c-.553 0-1-.447-1-1v-3.936c0-.553.447-1 1-1s1 .447 1 1v3.936c0 .553-.447 1-1 1z"/><path d="m47.999 58c-.15 0-.303-.034-.446-.105l-2-1c-.494-.247-.694-.848-.447-1.342.248-.494.848-.692 1.342-.447l2 1c.494.247.694.848.447 1.342-.176.35-.529.552-.896.552z"/><path d="m48.001 58c-.367 0-.72-.202-.896-.553-.247-.494-.047-1.095.447-1.342l2-1c.494-.245 1.094-.047 1.342.447.247.494.047 1.095-.447 1.342l-2 1c-.143.072-.296.106-.446.106z"/><path d="m52.001 58c-.367 0-.72-.202-.896-.553-.247-.494-.047-1.095.447-1.342l2-1c.494-.245 1.094-.047 1.342.447.247.494.047 1.095-.447 1.342l-2 1c-.143.072-.296.106-.446.106z"/><path d="m51.999 58c-.15 0-.303-.034-.446-.105l-2-1c-.494-.247-.694-.848-.447-1.342.248-.494.848-.692 1.342-.447l2 1c.494.247.694.848.447 1.342-.176.35-.529.552-.896.552z"/><path d="m2 61.999c-.553 0-1-.447-1-1 0-3.309 2.691-6 6-6 .553 0 1 .447 1 1s-.447 1-1 1c-2.206 0-4 1.794-4 4 0 .553-.447 1-1 1z"/><path d="m10 56.999h-3c-.553 0-1-.447-1-1s.447-1 1-1h3c.553 0 1 .447 1 1s-.447 1-1 1z"/><path d="m2 63.997c-.553 0-1-.447-1-1v-1.998c0-.553.447-1 1-1s1 .447 1 1v1.998c0 .553-.447 1-1 1z"/><path d="m26 61.999c-.553 0-1-.447-1-1 0-2.206-1.794-4-4-4-.553 0-1-.447-1-1s.447-1 1-1c3.309 0 6 2.691 6 6 0 .553-.447 1-1 1z"/><path d="m21 56.999h-3c-.553 0-1-.447-1-1s.447-1 1-1h3c.553 0 1 .447 1 1s-.447 1-1 1z"/><path d="m26 63.997c-.553 0-1-.447-1-1v-1.998c0-.553.447-1 1-1s1 .447 1 1v1.998c0 .553-.447 1-1 1z"/><path d="m10 56.999c-.553 0-1-.447-1-1v-3.936c0-.553.447-1 1-1s1 .447 1 1v3.936c0 .553-.447 1-1 1z"/><path d="m18 56.999c-.553 0-1-.447-1-1v-3.936c0-.553.447-1 1-1s1 .447 1 1v3.936c0 .553-.447 1-1 1z"/><path d="m13.998 53.999c-5.513 0-9.998-4.485-9.998-9.998 0-.553.447-1 1-1s1 .447 1 1c0 4.41 3.588 7.998 7.998 7.998 4.412 0 8.002-3.588 8.002-7.998 0-.553.447-1 1-1s1 .447 1 1c0 5.513-4.487 9.998-10.002 9.998z"/><path d="m26 39.512c-.553 0-1-.447-1-1 0-5.237-4.261-9.498-9.497-9.498-2.683 0-5.094.952-6.789 2.683-.387.394-1.02.4-1.414.014-.395-.386-.4-1.02-.014-1.414 2.074-2.116 4.992-3.282 8.217-3.282 6.34 0 11.497 5.158 11.497 11.498 0 .551-.447.999-1 .999z"/><path d="m50.001 28.006c-.106 0-.213-.017-.316-.052l-5.847-1.948-14.837.012h-.001c-.265 0-.52-.105-.707-.293s-.293-.442-.293-.707v-24.017c0-.553.447-1 1-1h24.001c.553 0 1 .447 1 1v24.005c0 .553-.447 1-1 1h-1.999l-.001 1.001c0 .321-.155.623-.416.811-.172.123-.377.188-.584.188zm-6.001-4c.107 0 .214.018.316.052l4.686 1.562.001-.614c.001-.552.448-.999 1-.999h1.998v-22.006h-22.001v22.016z"/><path d="m16.998 24.004c-.197 0-.393-.059-.561-.172-.274-.187-.439-.496-.439-.828v-1h-2c-.553 0-1-.447-1-1v-12.996c0-.553.447-1 1-1h14.994c.553 0 1 .447 1 1s-.447 1-1 1h-13.994v10.996h2c.553 0 1 .447 1 1v.523l3.629-1.452c.118-.047.244-.071.371-.071h.002l6.994.012c.552.001.999.449.998 1.002-.001.552-.448.998-1 .998-.001 0-.001 0-.002 0l-6.801-.012-4.82 1.929c-.119.047-.245.071-.371.071z"/><path d="m5 45.001c-.553 0-1-.447-1-1v-10.005c0-.553.447-1 1-1s1 .447 1 1v10.005c0 .553-.447 1-1 1z"/><path d="m5 40.998c-.553 0-1-.447-1-1s.447-1 1-1c1.103 0 2-.897 2-2 0-.553.447-1 1-1s1 .447 1 1c0 2.206-1.794 4-4 4z"/><path d="m11.002 40.996c-2.205 0-3.999-1.795-3.999-4.002 0-.553.447-1 1-1s1 .447 1 1c0 1.104.896 2.002 1.999 2.002.553 0 1 .447 1 1s-.447 1-1 1z"/><path d="m5.002 34.996c-.553 0-1-.447-1-1 0-2.206 1.794-4 4-4 .553 0 1 .447 1 1s-.447 1-1 1c-1.103 0-2 .897-2 2 0 .553-.447 1-1 1z"/><path d="m8 37.998c-.553 0-1-.448-1-1l.002-6.002c0-.553.448-1 1-1 .553 0 1 .448 1 1l-.002 6.002c0 .553-.448 1-1 1z"/><path d="m26.002 48.027c-.553 0-1-.447-1-1 0-3.313-2.694-6.01-6.007-6.01-.553 0-1-.447-1-1s.447-1 1-1c4.415 0 8.007 3.593 8.007 8.01 0 .553-.447 1-1 1z"/><path d="m19.003 41h-8c-.553 0-1-.447-1-1s.447-1 1-1h8c.553 0 1 .447 1 1s-.447 1-1 1z"/><path d="m23 45.001c-.553 0-1-.447-1-1v-2.728c0-.553.447-1 1-1s1 .447 1 1v2.728c0 .553-.447 1-1 1z"/><path d="m26.002 48.02c-.553 0-1-.447-1-1v-8.508c0-.553.447-1 1-1s1 .447 1 1v8.508c0 .552-.447 1-1 1z"/><path d="m13.999 61.999c-.219 0-.44-.072-.624-.22-.432-.346-.501-.975-.155-1.405l3.994-4.982c.345-.431.977-.5 1.405-.155.432.346.501.975.155 1.405l-3.994 4.982c-.197.247-.488.375-.781.375z"/><path d="m14.001 61.999c-.294 0-.584-.129-.782-.375l-3.999-5c-.345-.432-.274-1.061.156-1.406.434-.346 1.06-.273 1.406.156l3.999 5c.345.432.274 1.061-.156 1.406-.185.148-.405.219-.624.219z"/><path d="" style="fill:none;stroke:#000;stroke-width:2;stroke-linecap:round;stroke-linejoin:round;stroke-miterlimit:10"/><path d="" style="fill:none;stroke:#000;stroke-width:2;stroke-linecap:round;stroke-linejoin:round;stroke-miterlimit:10"/><path d="m41 44.961c-.553 0-1-.447-1-1v-3.962c0-.553.447-1 1-1s1 .447 1 1v3.962c0 .553-.447 1-1 1z"/><path d="m59 45.001c-.553 0-1-.447-1-1v-4.002c0-.553.447-1 1-1s1 .447 1 1v4.002c0 .553-.447 1-1 1z"/><path d="m49.999 54.001c-5.514 0-9.999-4.485-9.999-9.998 0-.553.447-1 1-1s1 .447 1 1c0 4.41 3.588 7.998 7.999 7.998 4.412 0 8.001-3.588 8.001-7.998 0-.553.447-1 1-1s1 .447 1 1c0 5.513-4.486 9.998-10.001 9.998z"/><path d="m59.015 41.042h-18.007c-.553 0-1-.447-1-1v-8.04c0-1.654 1.346-3 3-3h14.007c1.654 0 3 1.346 3 3v8.04c0 .553-.448 1-1 1zm-17.007-2h16.007v-7.04c0-.552-.448-1-1-1h-14.007c-.552 0-1 .448-1 1z"/><path d="m49.997 38.015c-.553 0-1-.447-1-1v-4.012c0-.553.447-1 1-1s1 .447 1 1v4.012c0 .552-.447 1-1 1z"/><path d="m51.998 36.021h-4.002c-.553 0-1-.447-1-1s.447-1 1-1h4.002c.553 0 1 .447 1 1s-.447 1-1 1z"/><path d="m47.999 63.999c-.435 0-.835-.286-.961-.726l-2-6.999c-.151-.53.156-1.084.688-1.236.526-.146 1.084.155 1.236.688l2 6.999c.151.53-.156 1.084-.688 1.236-.091.025-.183.038-.275.038z"/><path d="m52.001 63.999c-.092 0-.184-.013-.275-.038-.531-.152-.839-.706-.688-1.236l2-6.999c.152-.532.711-.834 1.236-.688.531.152.839.706.688 1.236l-2 6.999c-.126.44-.526.726-.961.726z"/><path d="m41 21.001c-4.411 0-8-3.589-8-8s3.589-8 8-8 8 3.589 8 8-3.589 8-8 8zm0-14c-3.309 0-6 2.691-6 6s2.691 6 6 6 6-2.691 6-6-2.691-6-6-6z"/><path d="m41 16.999c-.553 0-1-.447-1-1v-6c0-.553.447-1 1-1s1 .447 1 1v6c0 .553-.447 1-1 1z"/><path d="m44 13.999h-6c-.553 0-1-.447-1-1s.447-1 1-1h6c.553 0 1 .447 1 1s-.447 1-1 1z"/></svg>