<svg id="_x33_0" enable-background="new 0 0 64 64" height="512" viewBox="0 0 64 64" width="512" xmlns="http://www.w3.org/2000/svg"><g><g><g><path d="m43 58h-5v-6-4h-4-11-6-10c-.55 0-1-.45-1-1v-3.76-34.24c0-.55.45-1 1-1h31.04l.01.01c1.02-1.62 2.4-2.99 4.02-4v-.01h-35.07c-2.76 0-5 2.24-5 5v38c0 2.76 2.24 5 5 5h17v6h-5c-1.66 0-3 1.34-3 3v1h30v-1c0-1.66-1.34-3-3-3z" fill="#ccd1d9"/></g><g><path d="m60 21.93v20.16c-.14.05-.28.12-.4.21l-3.6 2.7v-1-18.04l-.01-.01c.51-.31.99-.67 1.44-1.06 1-.85 1.87-1.84 2.56-2.96z" fill="#ccd1d9"/></g><g><path d="m62 43.5v9c0 .83-.67 1.5-1.5 1.5-.32 0-.64-.11-.9-.3l-3.6-2.7v-6l3.6-2.7c.12-.09.26-.16.4-.21.16-.06.33-.09.5-.09.83 0 1.5.67 1.5 1.5z" fill="#fcd770"/></g><g><path d="m56 45v6 1c0 1.1-.9 2-2 2h-14c-1.1 0-2-.9-2-2v-4-4c0-1.1.9-2 2-2h14c1.1 0 2 .9 2 2z" fill="#fcd770"/></g><g><path d="m14.34 29c.47 1.31 1.38 2.42 2.56 3.13v.01l-.9 2.86-2.8.28c-.04 0-.08.01-.12.02-4.03.46-7.08 3.87-7.08 7.94v-34.24c0-.55.45-1 1-1h31.04l.01.01c-1.3 2.02-2.05 4.42-2.05 6.99 0 3.96 1.77 7.51 4.57 9.89 2.27 1.94 5.21 3.11 8.43 3.11 2.57 0 4.97-.75 6.99-2.05l.01.01v18.04c0-1.1-.9-2-2-2h-14c-1.1 0-2 .9-2 2v4h-4v-4.76c0-4.07-3.05-7.48-7.08-7.94-.04-.01-.08-.02-.12-.02l-2.8-.28-.9-2.86v-.01c.42-.24.8-.55 1.14-.89.63-.63 1.12-1.39 1.42-2.24h1.34c.83 0 1.58-.34 2.12-.88s.88-1.29.88-2.12c0-.86-.36-1.63-.94-2.18l.54-1.63c.27-.79.4-1.61.4-2.45 0-2.14-.87-4.07-2.27-5.47s-3.33-2.27-5.47-2.27h-2.65c-2.26 0-4.36 1.13-5.61 3l-1.09.27c-1.71.43-2.91 1.97-2.91 3.73 0 1 .25 2.2.5 3.13.25.94.5 1.63.5 1.63l.01.01c-.62.53-1.01 1.34-1.01 2.23 0 .83.34 1.58.88 2.12s1.29.88 2.12.88z" fill="#4fc1e9"/></g><g><path d="m20 38 4-3 2.8.28c.04 0 .08.01.12.02l-1.92 5.7-2.38-1.43z" fill="#5b6570"/></g><g><path d="m34 43.24v4.76h-11l-2-6 1.62-2.43 2.38 1.43 1.92-5.7c4.03.46 7.08 3.87 7.08 7.94z" fill="#5b6570"/></g><g><path d="m16 35 4 3-2.62 1.57-2.38 1.43-1.92-5.7c.04-.01.08-.02.12-.02z" fill="#5b6570"/></g><g><path d="m17.38 39.57 1.62 2.43-2 6h-10c-.55 0-1-.45-1-1v-3.76c0-4.07 3.05-7.48 7.08-7.94l1.92 5.7z" fill="#5b6570"/></g><g><path d="m22 19c0 .55-.22 1.05-.59 1.41-.36.37-.86.59-1.41.59h-4c-1.1 0-2 .9-2 2h-1c-.77 0-1.46.29-1.99.77l-.01-.01s-.25-.69-.5-1.63c-.25-.93-.5-2.13-.5-3.13 0-1.76 1.2-3.3 2.91-3.73l1.09-.27c1.25-1.87 3.35-3 5.61-3h2.65c2.14 0 4.07.87 5.47 2.27s2.27 3.33 2.27 5.47c0 .84-.13 1.66-.4 2.45l-.54 1.63c-.53-.5-1.26-.82-2.06-.82h-1c-.06-1.78-1.29-3.32-3.03-3.76z" fill="#fcd770"/></g><g><path d="m41 14v9.92c-.16.31-.3.63-.43.97-2.8-2.38-4.57-5.93-4.57-9.89 0-2.57.75-4.97 2.05-6.99 1.02-1.62 2.4-2.99 4.02-4 2-1.27 4.38-2.01 6.93-2.01 7.18 0 13 5.82 13 13 0 2.55-.74 4.93-2.01 6.93-.69 1.12-1.56 2.11-2.56 2.96-.13-.34-.27-.66-.43-.97v-9.92c0-2.21-.9-4.21-2.34-5.66-1.45-1.44-3.45-2.34-5.66-2.34-4.42 0-8 3.58-8 8z" fill="#ffeaa7"/></g><g><path d="m54.66 8.34c-1.45-1.44-3.45-2.34-5.66-2.34-4.42 0-8 3.58-8 8v9.92c.67-1.33 1.65-2.45 2.84-3.29.47-.33.98-.62 1.51-.85l3.65-.78c-1.1 0-2.1-.45-2.83-1.17-.72-.73-1.17-1.73-1.17-2.83v-1.76c0-.76.43-1.45 1.11-1.79l2.89-1.45 2.89 1.45c.68.34 1.11 1.03 1.11 1.79v1.76c0 2.21-1.79 4-4 4 1.29 0 2.53.28 3.65.78 1.87.83 3.42 2.29 4.35 4.14v-9.92c0-2.21-.9-4.21-2.34-5.66z" fill="#b27946"/></g><g><path d="m51.22 23-2.22 5-2.22-5z" fill="#656d78"/></g><g><path d="m52.65 19.78c1.87.83 3.42 2.29 4.35 4.14.16.31.3.63.43.97-.45.39-.93.75-1.44 1.06-2.02 1.3-4.42 2.05-6.99 2.05l2.22-5 1.4-3.14z" fill="#ff826e"/></g><g><path d="m45.38 19.86 1.4 3.14 2.22 5c-3.22 0-6.16-1.17-8.43-3.11.13-.34.27-.66.43-.97.67-1.33 1.65-2.45 2.84-3.29.47-.33.98-.62 1.51-.85z" fill="#ff826e"/></g><g><path d="m21 42 2 6h-6l2-6z" fill="#ff826e"/></g><g><path d="m17.38 39.57 2.62-1.57 2.62 1.57-1.62 2.43h-2z" fill="#ff826e"/></g><g><path d="m45.35 19.78 3.65-.78c1.29 0 2.53.28 3.65.78l-.03.08-1.4 3.14h-4.44l-1.4-3.14z" fill="#f0d0b4"/></g><g><path d="m53 13.24v1.76c0 2.21-1.79 4-4 4-1.1 0-2.1-.45-2.83-1.17-.72-.73-1.17-1.73-1.17-2.83v-1.76c0-.76.43-1.45 1.11-1.79l2.89-1.45 2.89 1.45c.68.34 1.11 1.03 1.11 1.79z" fill="#f0d0b4"/></g><g><path d="m29.06 23.82c-.53-.5-1.26-.82-2.06-.82h-1c-.06-1.78-1.29-3.32-3.03-3.76l-.97-.24c0 .55-.22 1.05-.59 1.41-.36.37-.86.59-1.41.59h-4c-1.1 0-2 .9-2 2h-1c-.77 0-1.46.29-1.99.77-.62.53-1.01 1.34-1.01 2.23 0 .83.34 1.58.88 2.12s1.29.88 2.12.88h1.34c.47 1.31 1.38 2.42 2.56 3.13v.01l-.9 2.86 4 3 4-3-.9-2.86v-.01c.42-.24.8-.55 1.14-.89.63-.63 1.12-1.39 1.42-2.24h1.34c.83 0 1.58-.34 2.12-.88s.88-1.29.88-2.12c0-.86-.36-1.63-.94-2.18z" fill="#f0d0b4"/></g></g><g><path d="m61 41.051v-18.877c1.261-2.101 2-4.55 2-7.174 0-7.72-6.28-14-14-14-2.624 0-5.073.739-7.174 2h-34.826c-3.309 0-6 2.691-6 6v38c0 3.309 2.691 6 6 6h16v4h-4c-2.206 0-4 1.794-4 4v2h32v-2c0-2.206-1.794-4-4-4h-4v-2.184c.314.112.648.184 1 .184h14c1.343 0 2.469-.893 2.851-2.112l2.15 1.613c.43.322.962.499 1.499.499 1.378 0 2.5-1.121 2.5-2.5v-9c0-1.208-.86-2.217-2-2.449zm-2 .449-2 1.5v-16.527c.719-.503 1.389-1.068 2-1.693zm-3-20.614c-1.013-.998-2.231-1.772-3.57-2.266.962-.912 1.57-2.193 1.57-3.62v-1.764c0-1.143-.635-2.171-1.658-2.683l-2.342-1.171v-2.302c3.387.488 6 3.401 6 6.92zm-5.427 1.114h-3.145l-.733-1.649c.736-.224 1.51-.351 2.305-.351s1.569.127 2.305.351zm-.889 2-.684 1.538-.684-1.538zm-3.684-9v-1.764c0-.381.212-.724.553-.894l2.447-1.224 2.447 1.224c.341.17.553.513.553.894v1.764c0 1.654-1.346 3-3 3s-3-1.346-3-3zm2-5.618-2.342 1.171c-1.023.511-1.658 1.54-1.658 2.683v1.764c0 1.427.608 2.708 1.57 3.62-1.34.494-2.558 1.267-3.57 2.266v-6.886c0-3.519 2.613-6.432 6-6.92zm-3.124 11.8 2.533 5.7c-2.082-.278-3.993-1.09-5.597-2.296.675-1.433 1.747-2.603 3.064-3.404zm8.248 0c1.316.801 2.389 1.972 3.063 3.404-1.604 1.206-3.515 2.018-5.597 2.296zm7.876-6.182c0 3.032-1.139 5.796-3 7.911v-8.911c0-4.962-4.038-9-9-9s-9 4.038-9 9v8.911c-1.861-2.115-3-4.879-3-7.911 0-6.617 5.383-12 12-12s12 5.383 12 12zm-58 32v-38c0-2.206 1.794-4 4-4h32.221c-.625.611-1.191 1.281-1.693 2h-30.528c-1.103 0-2 .897-2 2v38c0 1.103.897 2 2 2h30v2h-30c-2.206 0-4-1.794-4-4zm10-23v3c0 .34.033.672.08 1h-.08c-1.103 0-2-.897-2-2s.897-2 2-2zm.184-2h-.184c-.503 0-.979.104-1.423.274-.265-.92-.577-2.225-.577-3.274 0-1.307.885-2.44 2.153-2.757l1.464-.366.214-.322c1.066-1.6 2.851-2.555 4.773-2.555h2.651c3.72 0 6.745 3.025 6.745 6.744 0 .726-.117 1.443-.346 2.132l-.142.426c-.467-.192-.977-.302-1.512-.302h-.143c-.415-1.801-1.79-3.264-3.644-3.728l-.324-.081c-.353-1.262-1.515-2.191-2.889-2.191h-1v2h1c.551 0 1 .449 1 1s-.449 1-1 1h-4c-1.302 0-2.402.839-2.816 2zm13.816 5v-3c1.103 0 2 .897 2 2s-.897 2-2 2h-.08c.047-.328.08-.66.08-1zm-12-4c0-.551.449-1 1-1h4c1.221 0 2.274-.734 2.742-1.784 1.33.34 2.258 1.533 2.258 2.907v3.877c0 2.757-2.243 5-5 5s-5-2.243-5-5zm18 24h-9.279l-1.617-4.852.819-1.228 2.63 1.578 2.037-6.068c3.138.724 5.41 3.506 5.41 6.81zm-13.062-7.797.062.047.062-.047 1.143.686-.74 1.111h-.93l-.74-1.111zm-.217 3.797h.558l1.333 4h-3.225zm4.727-3.497-2.658-1.595 2.498-1.874 1.282.128zm-4.448-5.503c.878 0 1.716-.17 2.491-.466l.343 1.091-2.834 2.125-2.834-2.125.343-1.091c.775.296 1.613.466 2.491.466zm-4.288 2.034 2.498 1.874-2.658 1.595-1.122-3.341zm-3.302.395 2.037 6.068 2.63-1.578.819 1.228-1.617 4.853h-9.279v-3.76c0-3.304 2.272-6.086 5.41-6.811zm32.59 24.571h-28c0-1.103.897-2 2-2h24c1.103 0 2 .897 2 2zm-20-4v-4h12v4zm30-5c0 .552-.449 1-1 1h-14c-.551 0-1-.448-1-1v-8c0-.552.449-1 1-1h14c.551 0 1 .448 1 1zm-1-11h-14c-1.654 0-3 1.346-3 3v3h-2v-3.76c0-4.644-3.484-8.494-8.104-8.956l-2.139-.214-.483-1.538c.865-.67 1.567-1.535 2.042-2.532h.684c2.206 0 4-1.794 4-4 0-.901-.31-1.724-.815-2.393l.366-1.098c.298-.894.449-1.824.449-2.765 0-4.822-3.922-8.744-8.744-8.744h-2.651c-2.459 0-4.751 1.159-6.208 3.12l-.729.182c-2.16.54-3.668 2.472-3.668 4.698 0 1.609.566 3.587.871 4.539-.537.681-.871 1.529-.871 2.461 0 2.206 1.794 4 4 4h.685c.476.997 1.177 1.863 2.042 2.532l-.483 1.538-2.139.214c-2.49.249-4.642 1.487-6.105 3.297v-28.581h29.37c-.869 1.822-1.37 3.851-1.37 6 0 7.72 6.28 14 14 14 2.149 0 4.178-.501 6-1.37v13.541c-.313-.11-.649-.171-1-.171zm7 11.5c0 .385-.493.629-.8.4l-3.2-2.4v-5l3.199-2.399c.31-.232.801.015.801.399z"/><path d="m51 37h2v2h-2z"/><path d="m47 37h2v2h-2z"/><path d="m43 37h2v2h-2z"/><path d="m35 33h18v2h-18z"/><path d="m35 29h8v2h-8z"/></g></g></svg>