<svg width="84" height="84" viewBox="0 0 84 84" fill="none" xmlns="http://www.w3.org/2000/svg">
<path d="M34.23 33.3667C41.962 33.3667 48.23 27.0987 48.23 19.3667C48.23 11.6347 41.962 5.3667 34.23 5.3667C26.498 5.3667 20.23 11.6347 20.23 19.3667C20.23 27.0987 26.498 33.3667 34.23 33.3667Z" fill="black" fill-opacity="0.05"/>
<path d="M38.3598 74.2466C37.5887 73.484 37.0856 72.492 36.9257 71.4193C36.7659 70.3466 36.9579 69.251 37.4732 68.2966L38.7098 65.9633L36.1665 65.1933C35.1294 64.8687 34.2264 64.2146 33.5948 63.3303C32.9631 62.4459 32.6372 61.3797 32.6665 60.2933V55.51C32.6645 54.4284 33.0106 53.3749 33.6534 52.5051C34.2963 51.6353 35.202 50.9954 36.2365 50.68L38.7798 49.91L37.5665 47.5766C37.0664 46.6353 36.8761 45.5602 37.0227 44.5044C37.1694 43.4486 37.6455 42.466 38.3832 41.6966C36.5881 41.4613 34.7802 41.3366 32.9698 41.3233C27.6226 41.1974 22.3134 42.2531 17.4211 44.4149C12.5287 46.5767 8.17362 49.7915 4.6665 53.83V71.9133C4.6665 72.5321 4.91234 73.1256 5.34992 73.5632C5.78751 74.0008 6.381 74.2466 6.99984 74.2466H38.3598Z" fill="black" fill-opacity="0.05"/>
<path d="M78.6338 54.74L73.9671 53.34C73.6437 52.1876 73.1897 51.0759 72.6138 50.0267L74.9471 45.6867C75.0373 45.5256 75.0703 45.3387 75.0406 45.1565C75.0109 44.9743 74.9204 44.8075 74.7838 44.6833L71.4004 41.2767C71.2701 41.1498 71.104 41.0661 70.9245 41.0369C70.745 41.0077 70.5609 41.0344 70.3971 41.1133L66.0804 43.4467C65.0179 42.8695 63.9001 42.4004 62.7438 42.0467L61.3204 37.38C61.2578 37.2079 61.1434 37.0595 60.993 36.955C60.8426 36.8506 60.6636 36.7952 60.4804 36.7967H55.6271C55.4452 36.8017 55.2692 36.8627 55.1231 36.9712C54.977 37.0797 54.8678 37.2306 54.8104 37.4033L53.4104 42.07C52.2317 42.4129 51.0965 42.8905 50.0271 43.4933L45.8038 41.16C45.6396 41.0727 45.4521 41.0393 45.2679 41.0644C45.0836 41.0895 44.9119 41.172 44.7771 41.3L41.3471 44.66C41.2121 44.7901 41.1231 44.9608 41.0936 45.146C41.0641 45.3312 41.0958 45.521 41.1838 45.6867L43.5171 49.9333C42.892 50.9873 42.3835 52.1061 42.0004 53.27L37.3338 54.6933C37.1572 54.7444 37.0023 54.8519 36.8927 54.9994C36.7832 55.1469 36.725 55.3263 36.7271 55.51V60.2933C36.725 60.4771 36.7832 60.6564 36.8927 60.8039C37.0023 60.9515 37.1572 61.059 37.3338 61.11L42.0004 62.5333C42.3502 63.6761 42.8195 64.7789 43.4004 65.8233L41.0671 70.2567C40.9791 70.4223 40.9475 70.6121 40.9769 70.7973C41.0064 70.9826 41.0954 71.1532 41.2304 71.2833L44.7071 74.6667C44.8419 74.7947 45.0136 74.8771 45.1979 74.9022C45.3821 74.9274 45.5696 74.8939 45.7338 74.8067L50.0971 72.4733C51.1355 73.0318 52.2306 73.4777 53.3638 73.8033L54.7638 78.5867C54.8225 78.7631 54.9352 78.9166 55.0859 79.0255C55.2367 79.1343 55.4178 79.1931 55.6038 79.1933H60.3871C60.569 79.1882 60.745 79.1273 60.8911 79.0188C61.0372 78.9102 61.1464 78.7594 61.2038 78.5867L62.6038 73.8033C63.7234 73.4817 64.8035 73.0356 65.8238 72.4733L70.2338 74.8067C70.398 74.8939 70.5854 74.9274 70.7697 74.9022C70.9539 74.8771 71.1256 74.7947 71.2604 74.6667L74.6671 71.2833C74.7952 71.1485 74.8776 70.9768 74.9027 70.7926C74.9278 70.6083 74.8944 70.4209 74.8071 70.2567L72.4738 65.87C73.0319 64.8478 73.4779 63.7682 73.8038 62.65L78.4705 61.2267C78.6458 61.1703 78.7998 61.062 78.9123 60.9162C79.0248 60.7704 79.0904 60.5939 79.1005 60.41V55.58C79.1061 55.4108 79.0657 55.2433 78.9835 55.0953C78.9013 54.9474 78.7804 54.8245 78.6338 54.74ZM58.0304 65.7533C56.4881 65.7579 54.979 65.3048 53.6944 64.4513C52.4097 63.5977 51.4072 62.3822 50.8137 60.9586C50.2203 59.5349 50.0626 57.9672 50.3607 56.4539C50.6588 54.9406 51.3991 53.5498 52.4881 52.4576C53.5771 51.3653 54.9657 50.6208 56.4781 50.3182C57.9905 50.0156 59.5587 50.1685 60.9841 50.7577C62.4095 51.3469 63.628 52.3457 64.4854 53.6278C65.3428 54.9099 65.8004 56.4176 65.8004 57.96C65.8005 60.0229 64.9826 62.0016 63.5261 63.4625C62.0696 64.9233 60.0933 65.7472 58.0304 65.7533Z" fill="black" fill-opacity="0.05"/>
</svg>
