<svg width="18" height="18" viewBox="0 0 18 18" fill="none" xmlns="http://www.w3.org/2000/svg">
<path d="M8.66667 6.33333C9.40304 6.33333 10 5.811 10 5.16667C10 4.52233 9.40304 4 8.66667 4C7.93029 4 7.33333 4.52233 7.33333 5.16667C7.33333 5.811 7.93029 6.33333 8.66667 6.33333Z" fill="white"/>
<path d="M4.83333 14C5.47767 14 6 13.403 6 12.6667C6 11.9303 5.47767 11.3333 4.83333 11.3333C4.189 11.3333 3.66667 11.9303 3.66667 12.6667C3.66667 13.403 4.189 14 4.83333 14Z" fill="white"/>
<path d="M4.83333 10.3333C5.47767 10.3333 6 9.73638 6 9C6 8.26362 5.47767 7.66666 4.83333 7.66666C4.189 7.66666 3.66667 8.26362 3.66667 9C3.66667 9.73638 4.189 10.3333 4.83333 10.3333Z" fill="white"/>
<path d="M4.83333 6.33333C5.47767 6.33333 6 5.811 6 5.16667C6 4.52233 5.47767 4 4.83333 4C4.189 4 3.66667 4.52233 3.66667 5.16667C3.66667 5.811 4.189 6.33333 4.83333 6.33333Z" fill="white"/>
<path d="M12.3333 6.33333C13.0697 6.33333 13.6667 5.811 13.6667 5.16667C13.6667 4.52233 13.0697 4 12.3333 4C11.597 4 11 4.52233 11 5.16667C11 5.811 11.597 6.33333 12.3333 6.33333Z" fill="white"/>
<path d="M7.9697 12.7777V13.6833C7.9697 13.8607 8.1097 14 8.28788 14H9.17879C9.26151 14 9.34424 13.9683 9.40151 13.905L13.1115 10.2127L11.7624 8.87L8.06515 12.5497C8.00151 12.613 7.9697 12.6953 7.9697 12.7777V12.7777ZM8.62515 10.2L9.87879 8.95233V8.93333C9.87879 8.23666 9.30606 7.66666 8.60606 7.66666C7.90606 7.66666 7.33333 8.23666 7.33333 8.93333C7.33333 9.63 7.90606 10.2 8.60606 10.2H8.62515ZM14.2379 8.65466L13.3406 7.76166C13.2133 7.635 13.0161 7.635 12.8888 7.76166L12.2142 8.433L13.5633 9.77566L14.2379 9.10433C14.3652 8.97766 14.3652 8.78133 14.2379 8.65466V8.65466Z" fill="white"/>
</svg>
