<svg width="16" height="16" viewBox="0 0 16 16" fill="none" xmlns="http://www.w3.org/2000/svg">
<path d="M6.33333 6.99998H8C8.17681 6.99998 8.34638 6.92974 8.4714 6.80472C8.59643 6.67969 8.66667 6.51012 8.66667 6.33331C8.66667 6.1565 8.59643 5.98693 8.4714 5.86191C8.34638 5.73688 8.17681 5.66664 8 5.66664H7.33333V5.33331C7.33333 5.1565 7.2631 4.98693 7.13807 4.86191C7.01305 4.73688 6.84348 4.66664 6.66667 4.66664C6.48986 4.66664 6.32029 4.73688 6.19526 4.86191C6.07024 4.98693 6 5.1565 6 5.33331V5.69998C5.59495 5.78223 5.23491 6.01205 4.98977 6.34482C4.74463 6.6776 4.63189 7.08959 4.67343 7.50081C4.71497 7.91204 4.90782 8.29316 5.21456 8.57019C5.52129 8.84722 5.92002 9.00039 6.33333 8.99998H7C7.08841 8.99998 7.17319 9.0351 7.2357 9.09761C7.29821 9.16012 7.33333 9.24491 7.33333 9.33331C7.33333 9.42172 7.29821 9.5065 7.2357 9.56901C7.17319 9.63153 7.08841 9.66665 7 9.66665H5.33333C5.15652 9.66665 4.98695 9.73688 4.86193 9.86191C4.73691 9.98693 4.66667 10.1565 4.66667 10.3333C4.66667 10.5101 4.73691 10.6797 4.86193 10.8047C4.98695 10.9297 5.15652 11 5.33333 11H6V11.3333C6 11.5101 6.07024 11.6797 6.19526 11.8047C6.32029 11.9297 6.48986 12 6.66667 12C6.84348 12 7.01305 11.9297 7.13807 11.8047C7.2631 11.6797 7.33333 11.5101 7.33333 11.3333V10.9666C7.73838 10.8844 8.09843 10.6546 8.34356 10.3218C8.5887 9.98903 8.70144 9.57704 8.6599 9.16581C8.61837 8.75459 8.42551 8.37347 8.11878 8.09644C7.81204 7.81941 7.41332 7.66623 7 7.66665H6.33333C6.24493 7.66665 6.16014 7.63153 6.09763 7.56901C6.03512 7.5065 6 7.42172 6 7.33331C6 7.24491 6.03512 7.16012 6.09763 7.09761C6.16014 7.0351 6.24493 6.99998 6.33333 6.99998ZM14 7.99998H12V1.99998C12.0005 1.8825 11.9699 1.76699 11.9113 1.66514C11.8528 1.56329 11.7684 1.47871 11.6667 1.41998C11.5653 1.36147 11.4504 1.33066 11.3333 1.33066C11.2163 1.33066 11.1013 1.36147 11 1.41998L9 2.56664L7 1.41998C6.89865 1.36147 6.78369 1.33066 6.66667 1.33066C6.54964 1.33066 6.43468 1.36147 6.33333 1.41998L4.33333 2.56664L2.33333 1.41998C2.23199 1.36147 2.11702 1.33066 2 1.33066C1.88298 1.33066 1.76801 1.36147 1.66667 1.41998C1.56493 1.47871 1.48052 1.56329 1.42199 1.66514C1.36345 1.76699 1.33287 1.8825 1.33333 1.99998V12.6666C1.33333 13.1971 1.54405 13.7058 1.91912 14.0809C2.29419 14.4559 2.8029 14.6666 3.33333 14.6666H12.6667C13.1971 14.6666 13.7058 14.4559 14.0809 14.0809C14.456 13.7058 14.6667 13.1971 14.6667 12.6666V8.66665C14.6667 8.48983 14.5964 8.32027 14.4714 8.19524C14.3464 8.07022 14.1768 7.99998 14 7.99998ZM3.33333 13.3333C3.15652 13.3333 2.98695 13.2631 2.86193 13.1381C2.7369 13.013 2.66667 12.8435 2.66667 12.6666V3.15331L4 3.91331C4.10289 3.96705 4.21725 3.99512 4.33333 3.99512C4.44941 3.99512 4.56378 3.96705 4.66667 3.91331L6.66667 2.76664L8.66667 3.91331C8.76956 3.96705 8.88392 3.99512 9 3.99512C9.11608 3.99512 9.23044 3.96705 9.33333 3.91331L10.6667 3.15331V12.6666C10.6685 12.8941 10.7091 13.1195 10.7867 13.3333H3.33333ZM13.3333 12.6666C13.3333 12.8435 13.2631 13.013 13.1381 13.1381C13.013 13.2631 12.8435 13.3333 12.6667 13.3333C12.4899 13.3333 12.3203 13.2631 12.1953 13.1381C12.0702 13.013 12 12.8435 12 12.6666V9.33331H13.3333V12.6666Z" fill="white"/>
</svg>
