<svg width="18" height="18" viewBox="0 0 18 18" fill="none" xmlns="http://www.w3.org/2000/svg">
<path d="M12.45 8.15997L11.385 7.09497L8.20499 10.2825L6.61499 8.68497L5.54999 9.74997L8.20499 12.405L12.45 8.15997Z" fill="white"/>
<path d="M14.25 3H3.75C3.35218 3 2.97064 3.15804 2.68934 3.43934C2.40804 3.72064 2.25 4.10218 2.25 4.5V13.5C2.25 13.8978 2.40804 14.2794 2.68934 14.5607C2.97064 14.842 3.35218 15 3.75 15H14.25C15.075 15 15.75 14.325 15.75 13.5V4.5C15.75 4.10218 15.592 3.72064 15.3107 3.43934C15.0294 3.15804 14.6478 3 14.25 3ZM14.25 13.5H3.75V6H14.25V13.5Z" fill="white"/>
</svg>
