<svg width="73" height="84" viewBox="0 0 73 84" fill="none" xmlns="http://www.w3.org/2000/svg">
<path d="M68.5004 59.325C63.2504 49.35 58.0004 50.925 52.2254 50.4C52.7504 51.975 52.7504 53.55 52.7504 55.65C61.1504 57.75 63.2504 67.725 63.2504 73.5V78.75H52.7504V73.5H58.0004C58.0004 73.5 58.0004 60.375 50.1254 60.375C42.2504 60.375 42.2504 72.975 42.2504 73.5H47.5004V78.75H37.0004V73.5C37.0004 67.725 39.1004 57.225 47.5004 55.65C47.5004 52.5 46.9754 49.875 46.4504 48.825C45.4004 48.3 44.3504 47.25 44.3504 45.675C44.3504 42.525 48.5504 43.575 51.7004 37.8C51.7004 37.8 56.4254 25.725 54.8504 15.225H49.6004C49.6004 14.175 50.1254 13.65 50.1254 12.6C50.1254 11.55 50.1254 11.025 49.6004 9.975H53.8004C52.2254 4.725 46.9754 0 37.0004 0C27.0254 0 21.7754 4.725 19.6754 10.5H23.8754C23.8754 11.55 23.3504 12.075 23.3504 13.125C23.3504 14.175 23.3504 14.7 23.8754 15.75H18.6254C17.5754 26.25 21.7754 38.325 21.7754 38.325C24.9254 43.575 29.1254 42.525 29.1254 46.2C29.1254 48.825 26.5004 49.875 23.3504 50.4C22.3004 51.45 21.2504 53.55 21.2504 57.75V64.05C24.4004 65.1 26.5004 68.25 26.5004 71.4C26.5004 75.075 22.8254 78.75 18.6254 78.75C14.4254 78.75 10.7504 75.075 10.7504 70.875C10.7504 67.2 12.8504 64.575 16.0004 63.525V57.225C16.0004 54.6 16.5254 52.5 17.0504 50.4C13.3754 50.925 9.17539 52.5 5.50039 59.325C2.35039 65.1 0.775391 84 0.775391 84H72.7004C73.2254 84 71.6504 65.1 68.5004 59.325ZM29.1254 13.125C29.1254 8.925 32.8004 5.25 37.0004 5.25C41.2004 5.25 44.8754 8.925 44.8754 13.125C44.8754 17.325 41.2004 21 37.0004 21C32.8004 21 29.1254 17.325 29.1254 13.125Z" fill="black" fill-opacity="0.05"/>
</svg>
