<svg width="18" height="18" viewBox="0 0 18 18" fill="none" xmlns="http://www.w3.org/2000/svg">
<path d="M13.4366 9.51882C13.4372 9.22735 13.3566 8.94155 13.2041 8.69393C13.0516 8.44631 12.8333 8.2468 12.5739 8.11808C12.3145 7.98936 12.0245 7.9366 11.7369 7.96579C11.4492 7.99499 11.1755 8.10496 10.9467 8.28322C10.718 8.46148 10.5435 8.70087 10.443 8.97417C10.3425 9.24746 10.32 9.54371 10.3782 9.82922C10.4364 10.1147 10.5729 10.3781 10.7722 10.5892C10.9714 10.8004 11.2254 10.951 11.5054 11.0239V11.4659C11.5054 11.9838 11.3013 12.4804 10.9382 12.8465C10.575 13.2126 10.0825 13.4183 9.5689 13.4183C9.05532 13.4183 8.56278 13.2126 8.19962 12.8465C7.83647 12.4804 7.63245 11.9838 7.63245 11.4659C7.65187 11.0011 7.76456 10.5451 7.96372 10.1254C8.16289 9.70568 8.44438 9.33106 8.79119 9.02415H8.73899C9.10811 8.78136 9.41249 8.45097 9.62544 8.06194C9.83839 7.67291 9.95339 7.23713 9.96037 6.79285V5.22462C9.96037 4.91477 9.83829 4.61762 9.62098 4.39852C9.40368 4.17943 9.10895 4.05634 8.80163 4.05634H8.21704C8.1146 4.05634 8.01636 4.09737 7.94392 4.1704C7.87149 4.24343 7.83079 4.34249 7.83079 4.44577C7.83079 4.54905 7.87149 4.6481 7.94392 4.72113C8.01636 4.79417 8.1146 4.83519 8.21704 4.83519H8.79119C8.89363 4.83519 8.99187 4.87622 9.06431 4.94925C9.13674 5.02229 9.17744 5.12134 9.17744 5.22462V6.79285C9.17744 7.30744 8.97541 7.80111 8.61549 8.16596C8.25557 8.53082 7.76703 8.73719 7.25664 8.73997V9.02415V8.73997C7.00303 8.74136 6.75163 8.69236 6.51679 8.59579C6.28196 8.49922 6.06829 8.35695 5.88799 8.17712C5.70769 7.99729 5.56428 7.78342 5.46597 7.54771C5.36765 7.312 5.31634 7.05907 5.31497 6.80337V5.22462C5.31497 5.12134 5.35567 5.02229 5.4281 4.94925C5.50054 4.87622 5.59878 4.83519 5.70122 4.83519H6.24405C6.34649 4.83519 6.44473 4.79417 6.51717 4.72113C6.5896 4.6481 6.6303 4.54905 6.6303 4.44577C6.6303 4.34249 6.5896 4.24343 6.51717 4.1704C6.44473 4.09737 6.34649 4.05634 6.24405 4.05634H5.70122C5.39753 4.06186 5.10814 4.18738 4.89533 4.40588C4.68252 4.62438 4.56331 4.91839 4.56336 5.22462V6.79285C4.56223 7.23054 4.66606 7.66202 4.866 8.05053C5.06594 8.43904 5.35606 8.77307 5.71166 9.02415C6.05656 9.33199 6.33611 9.70702 6.53345 10.1267C6.7308 10.5463 6.84186 11.0019 6.85996 11.4659C6.85996 11.8246 6.93003 12.1798 7.06616 12.5111C7.2023 12.8425 7.40184 13.1436 7.65339 13.3972C7.90494 13.6508 8.20357 13.852 8.53223 13.9893C8.8609 14.1265 9.21316 14.1972 9.5689 14.1972C9.92465 14.1972 10.2769 14.1265 10.6056 13.9893C10.9342 13.852 11.2329 13.6508 11.4844 13.3972C11.736 13.1436 11.9355 12.8425 12.0716 12.5111C12.2078 12.1798 12.2778 11.8246 12.2778 11.4659V11.0239C12.609 10.9377 12.9024 10.7432 13.1121 10.4708C13.3218 10.1984 13.4359 9.86362 13.4366 9.51882V9.51882ZM11.8707 10.2977C11.7179 10.2977 11.5686 10.252 11.4415 10.1664C11.3145 10.0808 11.2155 9.95919 11.157 9.81688C11.0986 9.67456 11.0833 9.51796 11.1131 9.36688C11.1429 9.21579 11.2165 9.07702 11.3245 8.96809C11.4325 8.85917 11.5702 8.78499 11.72 8.75494C11.8699 8.72489 12.0252 8.74031 12.1663 8.79926C12.3075 8.85821 12.4281 8.95804 12.513 9.08612C12.5979 9.2142 12.6432 9.36478 12.6432 9.51882C12.6432 9.6211 12.6232 9.72238 12.5844 9.81688C12.5456 9.91137 12.4887 9.99723 12.417 10.0696C12.3452 10.1419 12.2601 10.1992 12.1663 10.2384C12.0726 10.2775 11.9722 10.2977 11.8707 10.2977V10.2977Z" fill="white"/>
</svg>
