<svg width="18" height="18" viewBox="0 0 18 18" fill="none" xmlns="http://www.w3.org/2000/svg">
<path d="M2.25 15.75H15.75" stroke="white" stroke-width="2" stroke-linecap="round" stroke-linejoin="round"/>
<path d="M3.75 15.75V3.75C3.75 3.35218 3.90804 2.97064 4.18934 2.68934C4.47064 2.40804 4.85218 2.25 5.25 2.25H12.75C13.1478 2.25 13.5294 2.40804 13.8107 2.68934C14.092 2.97064 14.25 3.35218 14.25 3.75V15.75" stroke="white" stroke-width="2" stroke-linecap="round" stroke-linejoin="round"/>
<path d="M6.75 15.75V12.75C6.75 12.3522 6.90804 11.9706 7.18934 11.6893C7.47064 11.408 7.85218 11.25 8.25 11.25H9.75C10.1478 11.25 10.5294 11.408 10.8107 11.6893C11.092 11.9706 11.25 12.3522 11.25 12.75V15.75" stroke="white" stroke-width="2" stroke-linecap="round" stroke-linejoin="round"/>
<path d="M7.5 6.75H10.5" stroke="white" stroke-width="2" stroke-linecap="round" stroke-linejoin="round"/>
<path d="M9 5.25V8.25" stroke="white" stroke-width="2" stroke-linecap="round" stroke-linejoin="round"/>
</svg>
