<svg width="16" height="16" viewBox="0 0 16 16" fill="none" xmlns="http://www.w3.org/2000/svg">
<path d="M11.3333 3.33333V4.66667C11.8638 4.66667 12.3725 4.87738 12.7476 5.25245C13.1226 5.62752 13.3333 6.13623 13.3333 6.66667V14C13.3333 14.1768 13.2631 14.3464 13.1381 14.4714C13.0131 14.5964 12.8435 14.6667 12.6667 14.6667H3.33334C3.15653 14.6667 2.98696 14.5964 2.86193 14.4714C2.73691 14.3464 2.66667 14.1768 2.66667 14V6.66667C2.66667 6.13623 2.87739 5.62752 3.25246 5.25245C3.62753 4.87738 4.13624 4.66667 4.66667 4.66667V3.33333H11.3333ZM8.66667 7.33333H7.33334V8.66667H6V10H7.33267L7.33334 11.3333H8.66667L8.666 10H10V8.66667H8.66667V7.33333ZM12.6667 1.33333V2.66667H3.33334V1.33333H12.6667Z" fill="white"/>
</svg>
