<svg width="18" height="18" viewBox="0 0 18 18" fill="none" xmlns="http://www.w3.org/2000/svg">
<path d="M1.5 5.25C1.5 4.85218 1.65804 4.47064 1.93934 4.18934C2.22064 3.90804 2.60218 3.75 3 3.75H15C15.3978 3.75 15.7794 3.90804 16.0607 4.18934C16.342 4.47064 16.5 4.85218 16.5 5.25V12.75C16.5 13.1478 16.342 13.5294 16.0607 13.8107C15.7794 14.092 15.3978 14.25 15 14.25H3C2.60218 14.25 2.22064 14.092 1.93934 13.8107C1.65804 13.5294 1.5 13.1478 1.5 12.75V5.25Z" stroke="white" stroke-width="2" stroke-linecap="round" stroke-linejoin="round"/>
<path d="M9 11.25C10.2426 11.25 11.25 10.2426 11.25 9C11.25 7.75736 10.2426 6.75 9 6.75C7.75736 6.75 6.75 7.75736 6.75 9C6.75 10.2426 7.75736 11.25 9 11.25Z" stroke="white" stroke-width="2" stroke-linecap="round" stroke-linejoin="round"/>
<path d="M1.5 6.75C2.29565 6.75 3.05871 6.43393 3.62132 5.87132C4.18393 5.30871 4.5 4.54565 4.5 3.75" stroke="white" stroke-width="2" stroke-linecap="round" stroke-linejoin="round"/>
<path d="M13.5 14.25C13.5 13.4544 13.8161 12.6913 14.3787 12.1287C14.9413 11.5661 15.7044 11.25 16.5 11.25" stroke="white" stroke-width="2" stroke-linecap="round" stroke-linejoin="round"/>
</svg>
