<svg width="18" height="18" viewBox="0 0 18 18" fill="none" xmlns="http://www.w3.org/2000/svg">
<path d="M14.0625 15H3.9375C3.3149 15 2.71588 14.7618 2.26333 14.3342C1.81078 13.9067 1.539 13.3221 1.50375 12.7005L1.5 12.5625V4.6875C1.49995 4.25991 1.66222 3.84823 1.95403 3.53569C2.24583 3.22314 2.64541 3.03302 3.072 3.00375L3.1875 3H12.5625C12.9901 2.99995 13.4018 3.16222 13.7143 3.45403C14.0269 3.74583 14.217 4.14541 14.2463 4.572L14.25 4.6875V5.25H14.8125C15.2401 5.24995 15.6518 5.41222 15.9643 5.70403C16.2769 5.99583 16.467 6.39541 16.4963 6.822L16.5 6.9375V12.5625C16.5 13.1851 16.2618 13.7841 15.8342 14.2367C15.4067 14.6892 14.8221 14.961 14.2005 14.9963L14.0625 15H3.9375H14.0625ZM3.9375 13.875H14.0625C14.392 13.875 14.7095 13.751 14.9518 13.5277C15.1941 13.3044 15.3436 12.9982 15.3705 12.6697L15.375 12.5625V6.9375C15.375 6.80157 15.3258 6.67024 15.2364 6.5678C15.1471 6.46536 15.0237 6.39874 14.889 6.38025L14.8125 6.375H14.25V12.1875C14.25 12.3234 14.2008 12.4548 14.1114 12.5572C14.0221 12.6596 13.8987 12.7263 13.764 12.7448L13.6875 12.75C13.5516 12.75 13.4202 12.7008 13.3178 12.6114C13.2154 12.5221 13.1487 12.3987 13.1302 12.264L13.125 12.1875V4.6875C13.125 4.55157 13.0758 4.42024 12.9864 4.3178C12.8971 4.21536 12.7737 4.14874 12.639 4.13025L12.5625 4.125H3.1875C3.05157 4.12501 2.92024 4.17423 2.8178 4.26358C2.71536 4.35292 2.64874 4.47633 2.63025 4.611L2.625 4.6875V12.5625C2.62501 12.8919 2.74888 13.2092 2.97201 13.4515C3.19514 13.6938 3.50122 13.8434 3.8295 13.8705L3.9375 13.875H14.0625H3.9375ZM9.1845 10.875H11.439C11.5815 10.875 11.7187 10.9292 11.8228 11.0265C11.927 11.1238 11.9903 11.257 12 11.3992C12.0097 11.5413 11.9651 11.6819 11.8752 11.7925C11.7852 11.903 11.6567 11.9753 11.5155 11.9948L11.439 12H9.1845C9.04198 12 8.90479 11.9458 8.80066 11.8485C8.69652 11.7512 8.63319 11.618 8.62348 11.4758C8.61377 11.3337 8.65839 11.1931 8.74832 11.0825C8.83826 10.972 8.96681 10.8997 9.108 10.8802L9.1845 10.875H11.439H9.1845ZM6.93225 8.25375C7.08143 8.25375 7.22451 8.31301 7.33 8.4185C7.43549 8.52399 7.49475 8.66707 7.49475 8.81625V11.4375C7.49475 11.5867 7.43549 11.7298 7.33 11.8352C7.22451 11.9407 7.08143 12 6.93225 12H4.311C4.16182 12 4.01874 11.9407 3.91325 11.8352C3.80776 11.7298 3.7485 11.5867 3.7485 11.4375V8.81625C3.7485 8.66707 3.80776 8.52399 3.91325 8.4185C4.01874 8.31301 4.16182 8.25375 4.311 8.25375H6.93225ZM6.36975 9.37875H4.8735V10.875H6.36975V9.37875ZM9.1845 8.25375H11.439C11.5815 8.25379 11.7187 8.30793 11.8228 8.40523C11.927 8.50253 11.9903 8.63572 12 8.77791C12.0097 8.9201 11.9651 9.06067 11.8752 9.17122C11.7852 9.28178 11.6567 9.35407 11.5155 9.3735L11.439 9.37875H9.1845C9.04097 9.38021 8.90231 9.32674 8.79691 9.2293C8.69152 9.13185 8.62736 8.9978 8.61759 8.85459C8.60781 8.71139 8.65315 8.56986 8.74432 8.45899C8.83549 8.34813 8.9656 8.27631 9.108 8.25825L9.1845 8.25375H11.439H9.1845ZM4.311 5.6265H11.439C11.5825 5.62504 11.7212 5.67851 11.8266 5.77595C11.932 5.8734 11.9961 6.00745 12.0059 6.15066C12.0157 6.29386 11.9704 6.43539 11.8792 6.54626C11.788 6.65712 11.6579 6.72894 11.5155 6.747L11.439 6.7515H4.311C4.16848 6.75146 4.03129 6.69732 3.92716 6.60002C3.82302 6.50272 3.75969 6.36953 3.74998 6.22734C3.74027 6.08515 3.78489 5.94458 3.87482 5.83403C3.96476 5.72347 4.09331 5.65118 4.2345 5.63175L4.311 5.6265H11.439H4.311V5.6265Z" fill="white"/>
</svg>
