<svg width="18" height="18" viewBox="0 0 18 18" fill="none" xmlns="http://www.w3.org/2000/svg">
<path d="M12.6 2.7C13.2887 2.69996 13.9514 2.96309 14.4524 3.43556C14.9535 3.90802 15.2551 4.5541 15.2955 5.2416L15.3 5.4V9.3411C15.2999 9.76369 15.1511 10.1728 14.8797 10.4967L14.7726 10.6137L10.6137 14.7726C10.3149 15.0714 9.92045 15.2556 9.4995 15.2928L9.3411 15.3H5.4C4.71131 15.3 4.04863 15.0369 3.54756 14.5644C3.04649 14.092 2.7449 13.4459 2.7045 12.7584L2.7 12.6V5.4C2.69996 4.71131 2.96309 4.04864 3.43555 3.54757C3.90801 3.04649 4.55409 2.7449 5.2416 2.7045L5.4 2.7H12.6ZM12.6 3.6H5.4C4.94588 3.59986 4.50849 3.77137 4.1755 4.08015C3.84252 4.38893 3.63856 4.81216 3.6045 5.265L3.6 5.4V12.6C3.59985 13.0541 3.77136 13.4915 4.08014 13.8245C4.38893 14.1575 4.81216 14.3614 5.265 14.3955L5.4 14.4H9V11.7C8.99996 11.0113 9.26309 10.3486 9.73555 9.84757C10.208 9.34649 10.8541 9.0449 11.5416 9.0045L11.7 9H14.4V5.4C14.4001 4.94588 14.2286 4.50849 13.9199 4.17551C13.6111 3.84252 13.1878 3.63856 12.735 3.6045L12.6 3.6ZM14.2047 9.9009L11.7 9.9C11.2459 9.89986 10.8085 10.0714 10.4755 10.3801C10.1425 10.6889 9.93856 11.1122 9.9045 11.565L9.9 11.7V14.2029L9.9774 14.1363L14.1363 9.9774C14.1606 9.9531 14.1831 9.9279 14.2038 9.9009H14.2047Z" fill="white"/>
</svg>
