<svg width="18" height="18" viewBox="0 0 18 18" fill="none" xmlns="http://www.w3.org/2000/svg">
<path d="M2.73 3.705V5.78H3.325V3.025H2.85L2.025 3.58L2.26 4L2.73 3.705V3.705Z" fill="white"/>
<path d="M2.785 7.41C2.83653 7.4052 2.88849 7.41098 2.9377 7.42697C2.98691 7.44297 3.03234 7.46885 3.0712 7.50302C3.11005 7.5372 3.14152 7.57895 3.16367 7.62572C3.18582 7.67249 3.19818 7.72329 3.2 7.775C3.2 7.965 3.095 8.145 2.765 8.41L1.765 9.195V9.695H3.835V9.14H2.665L3.165 8.755C3.665 8.405 3.805 8.12 3.805 7.755C3.80077 7.63031 3.77109 7.50781 3.71778 7.39501C3.66447 7.28221 3.58866 7.18151 3.495 7.09909C3.40134 7.01667 3.29182 6.95428 3.17316 6.91574C3.0545 6.8772 2.92921 6.86334 2.805 6.875C2.59662 6.87379 2.39094 6.92212 2.2049 7.01601C2.01887 7.1099 1.85781 7.24665 1.735 7.415L2.115 7.78C2.19135 7.67159 2.29133 7.58196 2.4074 7.51786C2.52347 7.45376 2.65259 7.41688 2.785 7.41V7.41Z" fill="white"/>
<path d="M3.28 12.32C3.42193 12.2845 3.54806 12.2029 3.63856 12.088C3.72907 11.973 3.77882 11.8313 3.78 11.685C3.78 11.25 3.39 10.93 2.78 10.93C2.57824 10.9265 2.37841 10.9698 2.19622 11.0566C2.01403 11.1433 1.85444 11.2712 1.73 11.43L2.075 11.79C2.15485 11.6941 2.25398 11.616 2.36596 11.5609C2.47795 11.5057 2.60027 11.4748 2.725 11.47C2.995 11.47 3.185 11.6 3.185 11.8C3.185 12 3.005 12.11 2.685 12.11H2.395V12.61H2.715C3.085 12.61 3.25 12.715 3.25 12.925C3.25 13.135 3.075 13.265 2.75 13.265C2.61251 13.2639 2.47673 13.2345 2.35113 13.1786C2.22552 13.1227 2.1128 13.0414 2.02 12.94L1.67 13.33C1.80935 13.4831 1.98039 13.6041 2.17122 13.6844C2.36205 13.7647 2.56809 13.8024 2.775 13.795C3.42 13.795 3.84 13.45 3.84 12.975C3.8396 12.8171 3.78305 12.6645 3.68045 12.5445C3.57785 12.4245 3.4359 12.3449 3.28 12.32V12.32Z" fill="white"/>
<path d="M16.21 4.5C16.21 4.36739 16.1573 4.24021 16.0636 4.14645C15.9698 4.05268 15.8426 4 15.71 4H5V5H15.71C15.8426 5 15.9698 4.94732 16.0636 4.85355C16.1573 4.75979 16.21 4.63261 16.21 4.5Z" fill="white"/>
<path d="M15.71 8H5V9H15.71C15.8426 9 15.9698 8.94732 16.0636 8.85355C16.1573 8.75979 16.21 8.63261 16.21 8.5C16.21 8.36739 16.1573 8.24021 16.0636 8.14645C15.9698 8.05268 15.8426 8 15.71 8Z" fill="white"/>
<path d="M15.71 12H5V13H15.71C15.8426 13 15.9698 12.9473 16.0636 12.8536C16.1573 12.7598 16.21 12.6326 16.21 12.5C16.21 12.3674 16.1573 12.2402 16.0636 12.1464C15.9698 12.0527 15.8426 12 15.71 12Z" fill="white"/>
</svg>
