<svg width="56" height="70" viewBox="0 0 56 70" fill="none" xmlns="http://www.w3.org/2000/svg">
<path d="M45.5 10.5V17.5C48.2848 17.5 50.9555 18.6062 52.9246 20.5754C54.8938 22.5445 56 25.2152 56 28V66.5C56 67.4283 55.6313 68.3185 54.9749 68.9749C54.3185 69.6313 53.4283 70 52.5 70H3.5C2.57174 70 1.6815 69.6313 1.02513 68.9749C0.36875 68.3185 0 67.4283 0 66.5V28C0 25.2152 1.10625 22.5445 3.07538 20.5754C5.04451 18.6062 7.71523 17.5 10.5 17.5V10.5H45.5ZM31.5 31.5H24.5V38.5H17.5V45.5H24.4965L24.5 52.5H31.5L31.4965 45.5H38.5V38.5H31.5V31.5ZM52.5 0V7H3.5V0H52.5Z" fill="black" fill-opacity="0.05"/>
</svg>
