<svg width="74" height="80" viewBox="0 0 74 80" fill="none" xmlns="http://www.w3.org/2000/svg">
<path d="M31.9507 15.4781C36.0168 15.4781 39.3131 12.2239 39.3131 8.20963C39.3131 4.19537 36.0168 0.941162 31.9507 0.941162C27.8846 0.941162 24.5884 4.19537 24.5884 8.20963C24.5884 12.2239 27.8846 15.4781 31.9507 15.4781Z" fill="black" fill-opacity="0.05"/>
<path fill-rule="evenodd" clip-rule="evenodd" d="M62.1425 74.8167C61.3398 74.8166 60.5497 74.6169 59.8433 74.2357C59.1369 73.8545 58.5364 73.3036 58.0957 72.6327L51.8105 60.2254H29.4962C28.8518 60.2215 28.2146 60.0908 27.6207 59.8406C27.0269 59.5904 26.4882 59.2257 26.0353 58.7674C25.5825 58.309 25.2243 57.7659 24.9814 57.1691C24.7384 56.5723 24.6153 55.9335 24.6192 55.2892V25.9633C24.6192 23.2308 26.8032 21.032 29.4962 21.032C32.1792 21.032 34.3682 23.2308 34.3682 25.9633V50.3579H54.4096C56.0352 50.3579 57.5522 51.1732 58.4465 52.5419L63.8028 63.536L67.0343 62.2117C67.6082 61.9229 68.2339 61.7511 68.8748 61.7064C69.5158 61.6618 70.1592 61.7451 70.7676 61.9516C71.3761 62.1581 71.9373 62.4836 72.4187 62.9092C72.9001 63.3347 73.2919 63.8518 73.5715 64.4303C74.1477 65.5996 74.2406 66.9486 73.83 68.1858C73.4195 69.423 72.5385 70.4488 71.3776 71.0416L64.3068 74.2979C63.6369 74.6405 62.8949 74.8184 62.1425 74.8167Z" fill="black" fill-opacity="0.05"/>
<path fill-rule="evenodd" clip-rule="evenodd" d="M26.4714 79.8714C11.9641 79.8714 0.164551 68.0917 0.164551 53.619C0.164551 45.0905 4.33984 37.066 11.3316 32.1446C11.686 31.8944 12.0862 31.7165 12.5094 31.6213C12.9327 31.5261 13.3705 31.5153 13.7979 31.5897C14.2253 31.6641 14.6338 31.8221 15 32.0547C15.3662 32.2873 15.6829 32.5899 15.9318 32.9451C16.1822 33.2988 16.3603 33.6984 16.4558 34.121C16.5514 34.5437 16.5625 34.981 16.4886 35.408C16.4147 35.835 16.2572 36.2431 16.0251 36.6091C15.7931 36.975 15.491 37.2915 15.1363 37.5404C12.5564 39.3545 10.4503 41.762 8.99531 44.5601C7.54033 47.3583 6.77914 50.4652 6.77584 53.619C6.78762 58.8357 8.86856 63.8347 12.562 67.5188C16.2554 71.203 21.2596 73.2714 26.4763 73.27C31.9116 73.27 36.9664 71.1107 40.7316 67.1924C41.3377 66.5607 42.1699 66.1957 43.0451 66.1777C43.9203 66.1596 44.7669 66.4899 45.3985 67.096C46.0302 67.7021 46.3952 68.5343 46.4133 69.4096C46.4313 70.2848 46.101 71.1313 45.4949 71.763C43.0419 74.3369 40.0897 76.3835 36.8188 77.7777C33.5478 79.1718 30.027 79.8843 26.4714 79.8714Z" fill="black" fill-opacity="0.05"/>
</svg>
