<svg width="64" height="64" viewBox="0 0 64 64" fill="none" xmlns="http://www.w3.org/2000/svg">
<path d="M56.5 0.5H7.5C3.65 0.5 0.535 3.65 0.535 7.5L0.5 56.5C0.5 60.35 3.65 63.5 7.5 63.5H56.5C60.35 63.5 63.5 60.35 63.5 56.5V7.5C63.5 3.65 60.35 0.5 56.5 0.5ZM49.5 39H39V49.5C39 51.425 37.425 53 35.5 53H28.5C26.575 53 25 51.425 25 49.5V39H14.5C12.575 39 11 37.425 11 35.5V28.5C11 26.575 12.575 25 14.5 25H25V14.5C25 12.575 26.575 11 28.5 11H35.5C37.425 11 39 12.575 39 14.5V25H49.5C51.425 25 53 26.575 53 28.5V35.5C53 37.425 51.425 39 49.5 39Z" fill="black" fill-opacity="0.05"/>
</svg>
