<svg width="16" height="16" viewBox="0 0 16 16" fill="none" xmlns="http://www.w3.org/2000/svg">
<path fill-rule="evenodd" clip-rule="evenodd" d="M8.31939 10.2855C7.95242 10.6995 7.4609 10.9831 6.91881 11.0936V12.6782C6.91881 12.8138 6.86496 12.9438 6.7691 13.0397C6.67324 13.1355 6.54322 13.1894 6.40765 13.1894C6.27209 13.1894 6.14207 13.1355 6.04621 13.0397C5.95035 12.9438 5.89649 12.8138 5.89649 12.6782V11.0936C5.3193 10.9756 4.80056 10.6619 4.42801 10.2055C4.05545 9.74911 3.85193 9.17807 3.85185 8.58893V5.52197C3.85103 4.86364 4.10427 4.23038 4.5588 3.75415C5.01334 3.27791 5.63411 2.99544 6.29176 2.96559C6.94942 2.93574 7.59322 3.16081 8.08903 3.59391C8.58484 4.027 8.89441 4.63472 8.95323 5.29041C9.2639 5.10865 9.61704 5.01211 9.97697 5.01056C10.3369 5.00901 10.6909 5.1025 11.0031 5.28159C11.3153 5.46068 11.5747 5.71901 11.7551 6.03048C11.9355 6.34195 12.0305 6.69552 12.0304 7.05545V9.10009C12.0304 9.55342 11.8797 9.99389 11.6021 10.3523C11.3246 10.7107 10.9358 10.9668 10.4969 11.0803V12.6782C10.4969 12.8138 10.4431 12.9438 10.3472 13.0397C10.2514 13.1355 10.1213 13.1894 9.98577 13.1894C9.85021 13.1894 9.72019 13.1355 9.62433 13.0397C9.52847 12.9438 9.47461 12.8138 9.47461 12.6782V11.0803C9.00798 10.9596 8.59889 10.6782 8.31939 10.2855ZM7.94113 5.52197V8.58893C7.94123 8.90616 7.84296 9.21563 7.65987 9.47469C7.47679 9.73376 7.21788 9.9297 6.91881 10.0355V8.58893C6.91881 8.45336 6.86496 8.32335 6.7691 8.22749C6.67324 8.13162 6.54322 8.07777 6.40765 8.07777C6.27209 8.07777 6.14207 8.13162 6.04621 8.22749C5.95035 8.32335 5.89649 8.45336 5.89649 8.58893V10.0355C5.59743 9.9297 5.33852 9.73376 5.15543 9.47469C4.97235 9.21563 4.87408 8.90616 4.87417 8.58893V5.52197C4.87417 5.11527 5.03574 4.72522 5.32332 4.43764C5.6109 4.15005 6.00095 3.98849 6.40765 3.98849C6.81436 3.98849 7.2044 4.15005 7.49199 4.43764C7.77957 4.72522 7.94113 5.11527 7.94113 5.52197V5.52197ZM10.4969 9.98542V8.58893C10.4969 8.45336 10.4431 8.32335 10.3472 8.22749C10.2514 8.13162 10.1213 8.07777 9.98577 8.07777C9.85021 8.07777 9.72019 8.13162 9.62433 8.22749C9.52847 8.32335 9.47461 8.45336 9.47461 8.58893V9.98542C9.3192 9.89569 9.19015 9.76664 9.10042 9.61123C9.0107 9.45583 8.96346 9.27954 8.96345 9.10009V7.05545C8.96345 6.78431 9.07116 6.52428 9.26288 6.33256C9.45461 6.14084 9.71464 6.03313 9.98577 6.03313C10.2569 6.03313 10.5169 6.14084 10.7087 6.33256C10.9004 6.52428 11.0081 6.78431 11.0081 7.05545V9.10009C11.0081 9.27954 10.9608 9.45583 10.8711 9.61123C10.7814 9.76664 10.6523 9.89569 10.4969 9.98542Z" fill="white"/>
</svg>
